<svg width="180" height="136" viewBox="0 0 180 136" fill="none" xmlns="http://www.w3.org/2000/svg">
<circle cx="90" cy="64" r="64" fill="#FFAF0B" fill-opacity="0.14"/>
<circle cx="24" cy="20" r="6" fill="#FE8C00"/>
<circle cx="21" cy="112" r="8" fill="#FE8C00"/>
<circle cx="164" cy="36" r="8" fill="#FE8C00"/>
<circle cx="153" cy="9" r="5" fill="#FE8C00"/>
<g filter="url(#filter0_dd_4332_2040)">
<path d="M92 16C108.475 16 122.621 25.9613 128.75 40.1885C129.816 40.0652 130.901 40 132 40C147.464 40 160 52.536 160 68C160 83.464 147.464 96 132 96H52C34.3269 96 20 81.6731 20 64C20 46.3269 34.3269 32 52 32C54.5372 32 57.0053 32.2964 59.3721 32.8545C66.6209 22.6543 78.5335 16 92 16Z" fill="#F9F5FF"/>
<circle cx="52" cy="64" r="32" fill="url(#paint0_linear_4332_2040)"/>
<circle cx="92" cy="56" r="40" fill="url(#paint1_linear_4332_2040)"/>
<circle cx="132" cy="68" r="28" fill="url(#paint2_linear_4332_2040)"/>
</g>
<foreignObject x="54" y="52" width="72" height="72"><div xmlns="http://www.w3.org/1999/xhtml" style="backdrop-filter:blur(4px);clip-path:url(#bgblur_0_4332_2040_clip_path);height:100%;width:100%"></div></foreignObject><g data-figma-bg-blur-radius="8">
<rect x="62" y="60" width="56" height="56" rx="28" fill="#FE8C00"/>
<path d="M75 77h30l-3 19a5.5 5.5 0 0 1-5.4 4.5H83.4A5.5 5.5 0 0 1 78 96l-3-19z" stroke="white" stroke-width="2.5" stroke-linecap="round" stroke-linejoin="round"/>
<path d="M84 73c0-3.3 2.7-6 6-6s6 2.7 6 6" stroke="white" stroke-width="2.5" stroke-linecap="round"/>
<path d="M90 77v12" stroke="white" stroke-width="2.5" stroke-linecap="round"/>
</g>
<defs>
<filter id="filter0_dd_4332_2040" x="0" y="16" width="180" height="120" filterUnits="userSpaceOnUse" color-interpolation-filters="sRGB">
<feFlood flood-opacity="0" result="BackgroundImageFix"/>
<feColorMatrix in="SourceAlpha" type="matrix" values="0 0 0 0 0 0 0 0 0 0 0 0 0 0 0 0 0 0 127 0" result="hardAlpha"/>
<feMorphology radius="4" operator="erode" in="SourceAlpha" result="effect1_dropShadow_4332_2040"/>
<feOffset dy="8"/>
<feGaussianBlur stdDeviation="4"/>
<feColorMatrix type="matrix" values="0 0 0 0 0.0627451 0 0 0 0 0.0941176 0 0 0 0 0.156863 0 0 0 0.03 0"/>
<feBlend mode="normal" in2="BackgroundImageFix" result="effect1_dropShadow_4332_2040"/>
<feColorMatrix in="SourceAlpha" type="matrix" values="0 0 0 0 0 0 0 0 0 0 0 0 0 0 0 0 0 0 127 0" result="hardAlpha"/>
<feMorphology radius="4" operator="erode" in="SourceAlpha" result="effect2_dropShadow_4332_2040"/>
<feOffset dy="20"/>
<feGaussianBlur stdDeviation="12"/>
<feColorMatrix type="matrix" values="0 0 0 0 0.0627451 0 0 0 0 0.0941176 0 0 0 0 0.156863 0 0 0 0.08 0"/>
<feBlend mode="normal" in2="effect1_dropShadow_4332_2040" result="effect2_dropShadow_4332_2040"/>
<feBlend mode="normal" in="SourceGraphic" in2="effect2_dropShadow_4332_2040" result="shape"/>
</filter>
<clipPath id="bgblur_0_4332_2040_clip_path" transform="translate(-54 -52)"><rect x="62" y="60" width="56" height="56" rx="28"/>
</clipPath><linearGradient id="paint0_linear_4332_2040" x1="27.4286" y1="42.8571" x2="84" y2="96" gradientUnits="userSpaceOnUse">
<stop stop-color="#FFAF0B" stop-opacity="0.44"/>
<stop offset="0.997917" stop-color="white" stop-opacity="0"/>
</linearGradient>
<linearGradient id="paint1_linear_4332_2040" x1="61.2857" y1="29.5714" x2="132" y2="95.9999" gradientUnits="userSpaceOnUse">
<stop stop-color="#FFAF0B" stop-opacity="0.44"/>
<stop offset="0.997917" stop-color="white" stop-opacity="0"/>
</linearGradient>
<linearGradient id="paint2_linear_4332_2040" x1="110.5" y1="49.5" x2="160" y2="96" gradientUnits="userSpaceOnUse">
<stop stop-color="#FFAF0B" stop-opacity="0.44"/>
<stop offset="0.997917" stop-color="white" stop-opacity="0"/>
</linearGradient>
</defs>
</svg>
